<svg width="88" height="33" viewBox="0 0 88 33" fill="none" xmlns="http://www.w3.org/2000/svg">
<g clip-path="url(#clip0_234_1107)">
<path d="M23.5525 19.7284C23.5525 21.8967 23.4113 24.0764 23.6061 26.225C23.7219 27.5152 24.2527 28.8112 24.8004 30.0111C25.3284 31.1658 25.2211 31.5922 23.9562 31.6063C21.5563 31.6373 19.1565 31.6373 16.7566 31.595C16.3388 31.5865 15.8023 31.403 15.5595 31.1066C15.4184 30.9343 15.6499 30.2906 15.887 29.9998C16.8837 28.7914 17.1124 27.4051 17.0926 25.9003C17.0587 22.8849 17.1067 19.8696 17.0644 16.857C17.0277 14.3527 16.4235 13.788 13.9559 13.7683C12.7785 13.7598 11.6012 13.788 10.4267 13.7626C9.61352 13.7429 9.19284 14.0676 9.19567 14.9117C9.21261 18.8673 9.21543 22.8256 9.23237 26.7812C9.23802 28.1759 10.0286 29.1302 11.0224 30.0026C11.3245 30.268 11.4205 30.7649 11.6096 31.1574C11.2341 31.3098 10.8615 31.5893 10.4831 31.5922C7.75293 31.6317 5.02273 31.6402 2.29536 31.6035C1.13496 31.5865 0.810275 31.0021 1.53306 30.0817C2.57488 28.7603 2.76122 27.295 2.7471 25.7026C2.71322 22.2638 2.71322 18.8249 2.75557 15.3861C2.76969 14.3019 2.5297 13.7316 1.27613 13.7344C0.844155 13.7344 0.149608 13.0907 0.0394968 12.6305C-0.144022 11.871 0.330303 11.2668 1.24507 11.3007C2.17396 11.3345 2.7104 11.0155 2.91086 10.0104C4.03173 4.3693 6.91156 1.62217 12.6458 1.25795C15.0287 1.10549 17.502 1.57982 19.8567 2.10496C21.4237 2.45506 22.5784 3.65216 22.5643 5.47888C22.5558 6.69575 22.025 7.66134 20.842 8.16108C19.6252 8.67775 18.0215 8.40389 17.1999 7.43547C16.7199 6.8708 16.3755 6.1819 16.0084 5.5297C14.7379 3.26819 11.9428 2.99997 10.6751 5.23607C9.8761 6.64775 9.60788 8.40671 9.32272 10.0499C9.15614 11.0127 10.085 10.8997 10.74 10.8743C14.2664 10.7388 17.7928 10.5807 21.3192 10.4706C23.2108 10.4113 23.5158 10.7275 23.5327 12.6615C23.5525 15.0162 23.5384 17.3709 23.5384 19.7284H23.544H23.5525Z" fill="#ED762F"/>
<path d="M34.9954 11.4532C35.4048 11.1963 35.7323 11.0297 36.0146 10.8067C38.1999 9.07877 40.7184 8.70044 43.361 9.13241C46.1872 9.59262 48.0648 11.408 48.3753 14.3048C48.6803 17.1508 48.604 20.0362 48.6746 22.9048C48.7057 24.1301 48.7 25.3555 48.6746 26.578C48.6464 27.9304 48.8355 28.9807 50.586 29.0597C51.6081 29.1077 51.4782 29.8361 50.9277 30.4488C49.787 31.7221 46.5966 32.3856 44.832 31.7137C42.8528 30.957 42.3023 29.2743 42.2599 27.3996C42.1865 24.0567 42.2402 20.711 42.2091 17.3653C42.2006 16.5691 42.1159 15.7673 41.9917 14.9824C41.7997 13.7797 41.2294 12.8649 39.9335 12.5882C38.5528 12.2946 37.2626 12.6277 36.5963 13.8277C36.0034 14.8921 35.6137 16.1908 35.5544 17.4077C35.4104 20.3694 35.3963 23.348 35.5686 26.3069C35.642 27.5492 36.328 28.7548 36.7261 29.9773C36.8532 30.3641 37.1666 30.9175 37.0226 31.1066C36.7939 31.4031 36.249 31.5866 35.8339 31.5951C33.4821 31.6403 31.1274 31.6374 28.7755 31.5951C28.3633 31.5866 27.8184 31.4116 27.5982 31.1179C27.4486 30.9175 27.6547 30.2794 27.889 29.9971C28.8687 28.831 29.0635 27.4786 29.0522 26.0274C29.0296 22.7777 29.0296 19.5252 29.0522 16.2755C29.0607 14.9147 28.8292 13.678 27.9088 12.5967C27.169 11.7271 27.3836 11.0749 28.5158 10.7333C29.5943 10.4057 30.6531 10.0105 31.7231 9.65191C34.1145 8.85007 34.2952 8.94042 34.9954 11.4532Z" fill="#ED762F"/>
<path d="M60.4597 11.4305C60.8268 11.1934 61.1797 11.0014 61.4931 10.7614C63.6953 9.06171 66.2137 8.68903 68.8536 9.15206C71.6346 9.6405 73.4557 11.4164 73.7888 14.2398C74.0909 16.8005 74.0316 19.4037 74.0937 21.9899C74.1361 23.7319 74.0994 25.4767 74.1191 27.2188C74.1304 28.2323 74.4918 28.9325 75.6607 29.0116C76.0221 29.037 76.3666 29.3419 76.7195 29.517C76.5077 29.9066 76.3891 30.4289 76.0673 30.6661C74.3846 31.9027 72.4731 32.3065 70.4516 31.7757C68.7039 31.3183 67.7129 29.7231 67.6734 27.326C67.6198 24.0284 67.6621 20.7307 67.6311 17.433C67.6254 16.6368 67.5435 15.8378 67.4278 15.0472C67.2301 13.7174 66.5751 12.7575 65.1437 12.5429C63.7546 12.3368 62.5067 12.7631 61.8883 13.997C61.3604 15.0529 61.0187 16.3008 60.9679 17.481C60.8437 20.3975 60.8155 23.3282 60.9877 26.2391C61.0611 27.4842 61.5891 28.7575 62.1453 29.9038C62.7438 31.1376 62.6478 31.5865 61.3237 31.6034C58.8758 31.6373 56.428 31.6373 53.9829 31.6034C52.9072 31.5865 52.5345 30.9823 53.2037 30.1776C54.4347 28.6982 54.4911 27.007 54.4798 25.2481C54.4601 22.2327 54.5702 19.2117 54.4149 16.2048C54.3528 15.0105 53.8587 13.7796 53.3223 12.6813C52.735 11.4757 52.7237 11.1849 54.014 10.7247C54.988 10.3774 55.9706 10.0555 56.9503 9.7252C59.5478 8.84996 59.5647 8.85561 60.4625 11.4305H60.4597Z" fill="#ED762F"/>
<path d="M86.3385 18.9434C86.3385 21.1541 86.3498 23.362 86.3357 25.5727C86.3244 27.1989 86.5164 28.7235 87.5977 30.0787C88.329 30.9935 88.0127 31.5836 86.8608 31.6034C84.3734 31.6457 81.8832 31.6401 79.393 31.6034C78.3201 31.5892 77.9503 30.9822 78.6166 30.1776C79.8448 28.7009 79.904 27.0154 79.8927 25.2593C79.8758 22.4867 79.8758 19.7114 79.8927 16.9388C79.9012 15.2843 79.873 13.6609 78.9215 12.1871C78.3907 11.3655 78.7126 10.7556 79.6528 10.4959C81.056 10.1091 82.4564 9.71665 83.8624 9.35526C85.7484 8.86964 86.2933 9.25644 86.3215 11.1848C86.3582 13.771 86.33 16.3572 86.33 18.9406H86.3385V18.9434Z" fill="#ED762F"/>
<path d="M82.9872 7.0629C80.6184 7.0629 78.9244 5.57781 78.9272 3.51394C78.9301 1.47547 80.6693 -0.00962249 83.0352 0.00449433C85.2826 0.0186111 87.0331 1.5404 87.0529 3.49135C87.0727 5.52699 85.3222 7.0629 82.9872 7.0629Z" fill="#ED762F"/>
</g>
<defs>
<clipPath id="clip0_234_1107">
<rect width="87.9901" height="32" fill="white" transform="translate(0 0.00439453)"/>
</clipPath>
</defs>
</svg>
